<svg version="1.1" xmlns="http://www.w3.org/2000/svg" x="0" y="0" viewBox="0 0 636.19 246.22" xml:space="preserve"><style type="text/css">
	.st0{fill:#FFFFFF;}
</style><path class="st0" d="M613.16 46.82l-32.03 83.85 -35.51-83.85H523l47.35 112.16 -2.62 6.89c-0.08 0.23-8.03 22.43-25.45 22.43H517.7v20.98h24.57c32.52 0 44.8-35.13 45.19-36.28l48.73-126.18L613.16 46.82 613.16 46.82z"/><circle class="st0" cx="231.64" cy="15.5" r="15.5"/><polygon class="st0" points="246.55 46.69 214.41 46.69 211.47 67.68 225.57 67.68 225.57 146.27 204.36 146.27 204.36 167.25 267.44 167.25 267.44 146.27 246.56 146.27 "/><path class="st0" d="M331.29 44.61c-0.22 0-0.41-0.06-0.62-0.06 -24.78 0-44.94 20.16-44.94 44.94 0 14.42 6.94 27.13 17.53 35.36 -5.67 5.84-9.18 8.81-9.23 17.21 -0.04 7.27 2.65 9.32 7.02 14.79 -16.49 8.48-27.62 23.66-27.62 41.11 0 26.62 25.68 48.28 57.24 48.28 31.58 0 57.26-21.66 57.26-48.28s-25.68-48.28-57.26-48.28c-9.81 0-15.7-1.92-15.7-7.61 0-5.47 5.31-7.61 15.7-7.61 24.78 0 44.94-20.16 44.94-44.95 0-8.82-2.65-17-7.06-23.96h20.91v-21H331.3L331.29 44.61 331.29 44.61zM366.94 197.94c0 15.05-16.27 27.3-36.27 27.3 -19.98 0-36.25-12.24-36.25-27.3 0-15.05 16.27-27.3 36.25-27.3C350.67 170.65 366.94 182.89 366.94 197.94zM330.67 113.45c-13.22 0-23.96-10.75-23.96-23.97 0-13.21 10.74-23.96 23.96-23.96s23.96 10.75 23.96 23.96C354.62 102.7 343.89 113.45 330.67 113.45zM452.76 44.61c-0.22 0-0.41-0.06-0.63-0.06 -24.78 0-44.94 20.16-44.94 44.94 0 14.42 6.94 27.13 17.53 35.36 -5.67 5.84-9.18 8.81-9.23 17.21 -0.04 7.27 2.65 9.32 7.02 14.79 -16.49 8.48-27.62 23.66-27.62 41.11 0 26.62 25.68 48.28 57.24 48.28 31.58 0 57.26-21.66 57.26-48.28s-25.68-48.28-57.26-48.28c-9.81 0-15.7-1.92-15.7-7.61 0-5.47 5.31-7.61 15.7-7.61 24.78 0 44.94-20.16 44.94-44.95 0-8.82-2.65-17-7.06-23.96h20.91v-21h-58.16L452.76 44.61 452.76 44.61zM488.41 197.94c0 15.05-16.27 27.3-36.27 27.3 -19.98 0-36.25-12.24-36.25-27.3 0-15.05 16.27-27.3 36.25-27.3C472.14 170.65 488.41 182.89 488.41 197.94zM452.14 113.45c-13.22 0-23.96-10.75-23.96-23.97 0-13.21 10.74-23.96 23.96-23.96s23.96 10.75 23.96 23.96C476.1 102.7 465.36 113.45 452.14 113.45z"/><path class="st0" d="M63.1 4.85L63.1 4.85c-47.72 0-78.23 51.03-55.35 92.9 12.12 22.17 49.62 71.67 49.62 71.67 2.58 4.34 8.87 4.34 11.45 0 0 0 37.5-49.5 49.62-71.67C141.34 55.87 110.82 4.85 63.1 4.85zM63.1 115.62c-24.87 0-45.04-21.05-45.04-47.01 0-3.58 0.4-7.07 1.12-10.42 2.6-7.6 9.74-13.11 18.18-13.26 10.95-0.18 19.91 9.14 19.91 20.09v12.72c0 1.27 0.42 2.51 1.19 3.53l0 0c2.33 3.07 6.94 3.07 9.28 0.01v-0.01c0.77-1.02 1.19-2.26 1.19-3.54V65.17c0-0.22-0.01-0.44-0.02-0.66h0.02c0-10.8 8.78-19.58 19.58-19.58 8.52 0 15.77 5.48 18.45 13.09 0.75 3.4 1.16 6.95 1.16 10.59C108.14 94.57 87.98 115.62 63.1 115.62z"/><circle class="st0" cx="37.72" cy="64.5" r="10.72"/><path class="st0" d="M88.49 53.79c-5.92 0-10.72 4.8-10.72 10.72s4.8 10.72 10.72 10.72 10.72-4.8 10.72-10.72S94.41 53.79 88.49 53.79z"/></svg>
