<?xml version="1.0" encoding="utf-8"?>
<!-- Generator: Adobe Illustrator 24.3.0, SVG Export Plug-In . SVG Version: 6.00 Build 0)  -->
<svg version="1.1" id="Layer_1" xmlns="http://www.w3.org/2000/svg" xmlns:xlink="http://www.w3.org/1999/xlink" x="0px" y="0px"
	 viewBox="0 0 126.21 167.82" style="enable-background:new 0 0 126.21 167.82;" xml:space="preserve">
<style type="text/css">
	.st0{fill:#FFFFFF;}
</style>
<g>
	<g>
		<path class="st0" d="M63.1,0L63.1,0C15.39,0-15.13,51.03,7.76,92.9c12.12,22.17,49.62,71.67,49.62,71.67
			c2.58,4.34,8.87,4.34,11.45,0c0,0,37.5-49.5,49.62-71.67C141.34,51.03,110.82,0,63.1,0z M63.1,110.77
			c-24.87,0-45.04-21.05-45.04-47.01c0-3.58,0.4-7.07,1.12-10.42c2.6-7.6,9.74-13.11,18.18-13.26c10.95-0.18,19.91,9.14,19.91,20.09
			v12.72c0,1.27,0.42,2.51,1.19,3.53v0c2.33,3.07,6.94,3.07,9.28,0.01l0-0.01c0.77-1.02,1.19-2.26,1.19-3.54V60.32
			c0-0.22-0.01-0.44-0.02-0.66h0.02c0-10.8,8.78-19.58,19.58-19.58c8.52,0,15.77,5.48,18.45,13.09c0.75,3.4,1.16,6.95,1.16,10.59
			C108.14,89.72,87.98,110.77,63.1,110.77z"/>
		<circle class="st0" cx="37.72" cy="59.66" r="10.72"/>
		<path class="st0" d="M88.49,48.94c-5.92,0-10.72,4.8-10.72,10.72s4.8,10.72,10.72,10.72c5.92,0,10.72-4.8,10.72-10.72
			S94.41,48.94,88.49,48.94z"/>
	</g>
</g>
</svg>
